<svg id="Слой_1" data-name="Слой 1" xmlns="http://www.w3.org/2000/svg" viewBox="0 0 150 190"><defs><style>.cls-1{fill-rule:evenodd;}</style></defs><title>Монтажная область 28</title><path class="cls-1" d="M42.48,145.66,42,66.56l65.68,1.11.58,62.06L89.14,147.91ZM101.91,73l-54.54-.65.94,67.87,35.34,2.09.61-17.53,18.42-.43ZM67.27,106.9l29.28.08,0,7.39-29.46-.68ZM67.66,94h29l0,7.36-29.11-1.08Zm.39-12.49,28.61.5,0,6.5-28.78-.67Zm-13.72,6-.13-6.26,9.28.16-.19,6.31Zm8.58,12.59-8.33-.31L54.46,94H63.1Zm-.4,13.49-7.64-.17-.14-6.54,8,0Z"/></svg>