<svg id="Слой_1" data-name="Слой 1" xmlns="http://www.w3.org/2000/svg" viewBox="0 0 150 190"><defs><style>.cls-1{fill-rule:evenodd;}</style></defs><title>Монтажная область 24</title><path class="cls-1" d="M90.53,148.14c-8.37,0-15.43-2.58-20.21-7.49-4.25-4.36-6.44-10.31-6.35-17-8.13-1.17-12.77-6.1-14-11.87-1-4.63-2-10.17-3.1-15.85a24.09,24.09,0,0,0-2.48,3.23c-4.54,7-6.15,16.18-3.9,26.41h.3c15,0,14.88,22.89.26,22.89-13.07,0-15-15.23-7.09-20.84-3-12.17-.66-23.3,4.93-31.92a32.32,32.32,0,0,1,6.61-7.36c-.79-4.51-1.52-8.9-2.12-12.76-1.16-7.45.52-13.22,4.11-16.24a9.8,9.8,0,0,1,5.41-2.23l3.54-2.37s3.11-.06,4.86,0c5.39.25,4.52,10.78-.47,10.54-2.31-.11-6.45-.79-6.45-.79l-1.88-2.25a4.52,4.52,0,0,0-1.79.9c-2.14,1.8-3.24,6.16-2.39,11.65,1.15,7.43,2.56,16.9,4.19,25.38L56,101.83s1.46,5.92,1.66,7.18c1.61,10,17.48,9.74,19.05,1.16.37-2,1.8-8.22,1.8-8.22l3.51-2c.86-4.37,1.82-9.44,2.78-14.56a55.15,55.15,0,0,0-7.12-.45c-8.73,0-16.29,1.59-22.29,4.62l-1-6.64a58,58,0,0,1,23.33-4.39,59.94,59.94,0,0,1,8.28.56q.48-2.6,1-5.07c.92-4.86.1-8.4-1.68-10a5.4,5.4,0,0,0-3.58-1.15l-1.6,1.66s-4.14.29-6.46.41c-5,.27-5.82-9.67-.12-9.8,2.66-.06,5.31-.31,5.31-.31L83,58a9.7,9.7,0,0,1,5.58,2.33c2.23,2,4.88,6.13,3.27,14.65-2.66,14.13-6.07,31.77-7.38,37.5-1.1,4.79-5.4,10.44-14.24,11.32-.08,5,1.36,9.24,4.43,12.39,4.33,4.44,11.44,6.33,20,5.34,10.38-1.21,20.4-10.87,19.47-27a30.06,30.06,0,0,0-20-26.82l1.77-6.17a38.45,38.45,0,0,1,13.5,8.17,36.43,36.43,0,0,1,11.23,24.49c.86,14.82-7.63,31.67-25,33.69A44.61,44.61,0,0,1,90.53,148.14ZM37.92,138.4a58.22,58.22,0,0,1-2.34-5.51c-2.87,3.74-1.28,10.56,5.3,10.56,7.88,0,8.31-11.74,1-12.87.56,1.66,1.21,3.35,2,5C45,138.21,39.47,141.55,37.92,138.4Z"/></svg>